:FULLY-SPECIFIED
:FORCE-ALL-JOINTS-BE-3DOF
:DEGREES
211
root 8.33032 16.5057 -7.87084 8.02144 0.0992145 -5.76998
lfemur -43.9644 -3.02121 -10.4458
ltibia 20.6764 0 0
lfoot -17.0544 15.5005 0
ltoes -15.0271 0 0
rfemur 10.2027 5.52875 31.4129
rtibia 1.90833e-14 0 0
rfoot -12.3628 5.48057 0
rtoes -7.94378 0 0
lowerback -7.13788 2.38145 3.2314
upperback -0.881891 2.79721 3.76278
thorax 3.05436 1.41186 2.3506
lowerneck -16.0094 -6.48103 -14.5454
upperneck 14.841 -8.22255 14.9955
head 8.51353 -3.37244 6.49326
lclavicle -4.37326e-14 -1.11319e-14 0
lhumerus -50.7834 -11.0215 97.2238
lradius 26.7843 0 0
lwrist 9.87187 0 0
lhand -12.6626 -24.8796 0
lfingers 7.12502 0 0
lthumb 13.4184 4.66819 0
rclavicle -4.37326e-14 -1.11319e-14 0
rhumerus -36.9024 12.3182 -82.4905
rradius 53.1376 0 0
rwrist -27.207 0 0
rhand -32.5618 -28.7367 0
rfingers 7.12502 0 0
rthumb -5.79114 -58.6376 0
212
root 8.34982 16.489 -7.71867 8.12906 -0.178995 -5.90287
lfemur -44.2205 -2.81198 -10.3093
ltibia 20.6354 0 0
lfoot -16.9624 15.5798 0
ltoes -16.1577 0 0
rfemur 10.6693 5.64038 31.4571
rtibia 8.48145e-15 0 0
rfoot -12.4364 5.66118 0
rtoes -8.49278 0 0
lowerback -7.28758 2.44663 3.32597
upperback -0.882047 2.86594 3.77091
thorax 3.14148 1.44725 2.32168
lowerneck -15.8703 -6.4452 -14.5627
upperneck 14.7199 -8.18238 15.0396
head 8.4448 -3.35711 6.51609
lclavicle -2.70305e-14 -1.45772e-15 0
lhumerus -50.7896 -10.8006 97.0173
lradius 26.5182 0 0
lwrist 9.18513 0 0
lhand -13.3595 -26.896 0
lfingers 7.12502 0 0
lthumb 12.7463 2.68899 0
rclavicle -2.70305e-14 -1.45772e-15 0
rhumerus -37.1352 12.4846 -82.7883
rradius 53.2512 0 0
rwrist -27.1494 0 0
rhand -32.3912 -28.6995 0
rfingers 7.12502 0 0
rthumb -5.62645 -58.6045 0
213
root 8.36932 16.4722 -7.56649 8.23669 -0.457204 -6.03576
lfemur -44.4766 -2.60275 -10.1728
ltibia 20.5943 0 0
lfoot -16.8704 15.6591 0
ltoes -17.2882 0 0
rfemur 11.136 5.752 31.5013
rtibia -2.1204e-15 0 0
rfoot -12.5101 5.84178 0
rtoes -9.04179 0 0
lowerback -7.43728 2.51181 3.42054
upperback -0.882204 2.93467 3.77904
thorax 3.22859 1.48264 2.29276
lowerneck -15.7312 -6.40938 -14.58
upperneck 14.5988 -8.1422 15.0837
head 8.37607 -3.34178 6.53892
lclavicle -1.03285e-14 8.21647e-15 0
lhumerus -50.7958 -10.5798 96.8107
lradius 26.2521 0 0
lwrist 8.4984 0 0
lhand -14.0564 -28.9124 0
lfingers 7.12502 0 0
lthumb 12.0742 0.709787 0
rclavicle -1.03285e-14 8.21647e-15 0
rhumerus -37.3681 12.651 -83.0861
rradius 53.3648 0 0
rwrist -27.0918 0 0
rhand -32.2207 -28.6623 0
rfingers 7.12502 0 0
rthumb -5.46175 -58.5714 0
214
root 8.38882 16.4555 -7.41432 8.34431 -0.735413 -6.16865
lfemur -44.7326 -2.39352 -10.0362
ltibia 20.5533 0 0
lfoot -16.7784 15.7384 0
ltoes -18.4188 0 0
rfemur 11.6027 5.86363 31.5455
rtibia -1.27222e-14 0 0
rfoot -12.5837 6.02238 0
rtoes -9.59079 0 0
lowerback -7.58699 2.577 3.51511
upperback -0.88236 3.0034 3.78717
thorax 3.31571 1.51803 2.26384
lowerneck -15.5922 -6.37355 -14.5973
upperneck 14.4778 -8.10202 15.1278
head 8.30734 -3.32646 6.56175
lclavicle 6.37355e-15 1.78906e-14 0
lhumerus -50.802 -10.3589 96.6042
lradius 25.986 0 0
lwrist 7.81166 0 0
lhand -14.7533 -30.9288 0
lfingers 7.12502 0 0
lthumb 11.4021 -1.26941 0
rclavicle 6.37355e-15 1.78906e-14 0
rhumerus -37.6009 12.8173 -83.3839
rradius 53.4784 0 0
rwrist -27.0343 0 0
rhand -32.0501 -28.6251 0
rfingers 7.12502 0 0
rthumb -5.29706 -58.5384 0
215
root 8.40832 16.4388 -7.26215 8.45193 -1.01362 -6.30154
lfemur -44.9887 -2.1843 -9.89971
ltibia 20.5123 0 0
lfoot -16.6865 15.8176 0
ltoes -19.5494 0 0
rfemur 12.0693 5.97526 31.5896
rtibia -2.33241e-14 0 0
rfoot -12.6573 6.20299 0
rtoes -10.1398 0 0
lowerback -7.73669 2.64218 3.60967
upperback -0.882516 3.07212 3.79531
thorax 3.40283 1.55343 2.23492
lowerneck -15.4531 -6.33772 -14.6145
upperneck 14.3567 -8.06185 15.1719
head 8.23861 -3.31113 6.58458
lclavicle 2.30756e-14 2.75648e-14 0
lhumerus -50.8082 -10.1381 96.3976
lradius 25.7198 0 0
lwrist 7.12493 0 0
lhand -15.4502 -32.9452 0
lfingers 7.12502 0 0
lthumb 10.73 -3.24862 0
rclavicle 2.30756e-14 2.75648e-14 0
rhumerus -37.8338 12.9837 -83.6817
rradius 53.5921 0 0
rwrist -26.9767 0 0
rhand -31.8795 -28.5879 0
rfingers 7.12502 0 0
rthumb -5.13237 -58.5053 0
216
root 8.42782 16.422 -7.10997 8.55956 -1.29183 -6.43443
lfemur -45.2448 -1.97507 -9.76318
ltibia 20.4712 0 0
lfoot -16.5945 15.8969 0
ltoes -20.6799 0 0
rfemur 12.5359 6.08688 31.6338
rtibia -3.39259e-14 0 0
rfoot -12.731 6.38359 0
rtoes -10.6888 0 0
lowerback -7.88639 2.70736 3.70424
upperback -0.882673 3.14085 3.80344
thorax 3.48994 1.58882 2.206
lowerneck -15.314 -6.3019 -14.6318
upperneck 14.2356 -8.02168 15.216
head 8.16988 -3.2958 6.60741
lclavicle 3.97777e-14 3.7239e-14 0
lhumerus -50.8144 -9.91722 96.191
lradius 25.4537 0 0
lwrist 6.43819 0 0
lhand -16.1471 -34.9616 0
lfingers 7.12502 0 0
lthumb 10.0579 -5.22782 0
rclavicle 3.97777e-14 3.7239e-14 0
rhumerus -38.0667 13.1501 -83.9795
rradius 53.7057 0 0
rwrist -26.9191 0 0
rhand -31.709 -28.5507 0
rfingers 7.12502 0 0
rthumb -4.96767 -58.4722 0
217
root 8.44732 16.4053 -6.9578 8.66718 -1.57004 -6.56732
lfemur -45.5009 -1.76584 -9.62666
ltibia 20.4302 0 0
lfoot -16.5025 15.9762 0
ltoes -21.8105 0 0
rfemur 13.0026 6.19851 31.678
rtibia -4.45278e-14 0 0
rfoot -12.8046 6.5642 0
rtoes -11.2378 0 0
lowerback -8.03609 2.77254 3.79881
upperback -0.882829 3.20958 3.81157
thorax 3.57706 1.62421 2.17708
lowerneck -15.1749 -6.26607 -14.6491
upperneck 14.1145 -7.9815 15.2601
head 8.10115 -3.28047 6.63024
lclavicle 5.64797e-14 4.69132e-14 0
lhumerus -50.8206 -9.69637 95.9845
lradius 25.1876 0 0
lwrist 5.75146 0 0
lhand -16.844 -36.978 0
lfingers 7.12502 0 0
lthumb 9.38584 -7.20702 0
rclavicle 5.64797e-14 4.69132e-14 0
rhumerus -38.2995 13.3165 -84.2773
rradius 53.8193 0 0
rwrist -26.8615 0 0
rhand -31.5384 -28.5135 0
rfingers 7.12502 0 0
rthumb -4.80298 -58.4391 0
218
root 8.4688 16.377 -6.79461 8.76754 -1.84599 -6.69889
lfemur -45.6201 -1.05905 -9.87938
ltibia 20.9976 0 0
lfoot -16.2343 15.463 0
ltoes -20.0187 0 0
rfemur 13.5259 6.3143 31.6836
rtibia -3.4456e-14 0 0
rfoot -12.6992 6.69936 0
rtoes -11.3693 0 0
lowerback -8.08229 2.78277 3.81399
upperback -0.933592 3.2199 3.84524
thorax 3.5488 1.62888 2.20547
lowerneck -15.2605 -6.22369 -14.5498
upperneck 14.2761 -7.93741 15.1836
head 8.15471 -3.25627 6.59532
lclavicle 4.30286e-14 3.2667e-14 0
lhumerus -50.8651 -9.38908 95.627
lradius 24.9334 0 0
lwrist 4.70215 0 0
lhand -15.6273 -35.2464 0
lfingers 7.12502 0 0
lthumb 10.5587 -5.54974 0
rclavicle 4.30286e-14 3.2667e-14 0
rhumerus -38.544 13.4131 -84.5484
rradius 53.6112 0 0
rwrist -26.6394 0 0
rhand -31.5957 -28.9438 0
rfingers 7.12502 0 0
rthumb -4.85829 -58.8681 0
219
root 8.49028 16.3487 -6.63142 8.8679 -2.12195 -6.83045
lfemur -45.7393 -0.352267 -10.1321
ltibia 21.565 0 0
lfoot -15.966 14.9497 0
ltoes -18.2269 0 0
rfemur 14.0493 6.4301 31.6891
rtibia -2.43843e-14 0 0
rfoot -12.5937 6.83452 0
rtoes -11.5009 0 0
lowerback -8.12849 2.79299 3.82917
upperback -0.984356 3.23022 3.87891
thorax 3.52054 1.63355 2.23386
lowerneck -15.3461 -6.1813 -14.4505
upperneck 14.4377 -7.89331 15.107
head 8.20827 -3.23207 6.56041
lclavicle 2.95775e-14 1.84207e-14 0
lhumerus -50.9097 -9.08178 95.2695
lradius 24.6791 0 0
lwrist 3.65284 0 0
lhand -14.4107 -33.5147 0
lfingers 7.12502 0 0
lthumb 11.7315 -3.89246 0
rclavicle 2.95775e-14 1.84207e-14 0
rhumerus -38.7886 13.5096 -84.8196
rradius 53.4032 0 0
rwrist -26.4172 0 0
rhand -31.653 -29.3741 0
rfingers 7.12502 0 0
rthumb -4.9136 -59.2971 0
220
root 8.51176 16.3203 -6.46823 8.96825 -2.3979 -6.96202
lfemur -45.8585 0.35452 -10.3848
ltibia 22.1324 0 0
lfoot -15.6978 14.4365 0
ltoes -16.4351 0 0
rfemur 14.5726 6.54589 31.6947
rtibia -1.43125e-14 0 0
rfoot -12.4883 6.96969 0
rtoes -11.6324 0 0
lowerback -8.17469 2.80322 3.84436
upperback -1.03512 3.24054 3.91258
thorax 3.49228 1.63822 2.26225
lowerneck -15.4316 -6.13892 -14.3513
upperneck 14.5992 -7.84921 15.0305
head 8.26182 -3.20786 6.52549
lclavicle 1.61264e-14 4.1745e-15 0
lhumerus -50.9543 -8.77449 94.912
lradius 24.4248 0 0
lwrist 2.60353 0 0
lhand -13.194 -31.7831 0
lfingers 7.12502 0 0
lthumb 12.9043 -2.23518 0
rclavicle 1.61264e-14 4.1745e-15 0
rhumerus -39.0332 13.6062 -85.0907
rradius 53.1951 0 0
rwrist -26.1951 0 0
rhand -31.7103 -29.8045 0
rfingers 7.12502 0 0
rthumb -4.96891 -59.7262 0
221
root 8.53325 16.292 -6.30505 9.06861 -2.67385 -7.09359
lfemur -45.9777 1.06131 -10.6376
ltibia 22.6999 0 0
lfoot -15.4295 13.9232 0
ltoes -14.6432 0 0
rfemur 15.0959 6.66168 31.7002
rtibia -4.24073e-15 0 0
rfoot -12.3829 7.10485 0
rtoes -11.7639 0 0
lowerback -8.2209 2.81345 3.85954
upperback -1.08588 3.25086 3.94626
thorax 3.46402 1.6429 2.29063
lowerneck -15.5172 -6.09654 -14.252
upperneck 14.7608 -7.80512 14.954
head 8.31538 -3.18366 6.49058
lclavicle 2.6753e-15 -1.00717e-14 0
lhumerus -50.9988 -8.4672 94.5545
lradius 24.1706 0 0
lwrist 1.55421 0 0
lhand -11.9773 -30.0515 0
lfingers 7.12502 0 0
lthumb 14.0771 -0.577907 0
rclavicle 2.6753e-15 -1.00717e-14 0
rhumerus -39.2777 13.7028 -85.3618
rradius 52.987 0 0
rwrist -25.973 0 0
rhand -31.7675 -30.2348 0
rfingers 7.12502 0 0
rthumb -5.02423 -60.1552 0
222
root 8.55473 16.2637 -6.14186 9.16897 -2.94981 -7.22515
lfemur -46.0969 1.76809 -10.8903
ltibia 23.2673 0 0
lfoot -15.1613 13.4099 0
ltoes -12.8514 0 0
rfemur 15.6193 6.77748 31.7058
rtibia 5.83103e-15 0 0
rfoot -12.2774 7.24001 0
rtoes -11.8955 0 0
lowerback -8.2671 2.82367 3.87472
upperback -1.13665 3.26118 3.97993
thorax 3.43576 1.64757 2.31902
lowerneck -15.6028 -6.05415 -14.1527
upperneck 14.9224 -7.76102 14.8774
head 8.36894 -3.15946 6.45566
lclavicle -1.07758e-14 -2.4318e-14 0
lhumerus -51.0434 -8.1599 94.197
lradius 23.9163 0 0
lwrist 0.504902 0 0
lhand -10.7607 -28.3198 0
lfingers 7.12502 0 0
lthumb 15.2499 1.07937 0
rclavicle -1.07758e-14 -2.4318e-14 0
rhumerus -39.5222 13.7993 -85.633
rradius 52.779 0 0
rwrist -25.7508 0 0
rhand -31.8248 -30.6651 0
rfingers 7.12502 0 0
rthumb -5.07954 -60.5842 0
